<mxfile host="app.diagrams.net" agent="Mozilla/5.0 (Windows NT 10.0; Win64; x64) AppleWebKit/537.36 (KHTML, like Gecko) Chrome/136.0.0.0 Safari/537.36 Edg/136.0.0.0" version="27.1.1">
  <diagram name="Page-1" id="ap8dGjKusnBbg_n5tWnG">
    <mxGraphModel>
      <root>
        <mxCell id="0" />
        <mxCell id="1" parent="0" />
        <mxCell id="2" value="Cliente" style="whiteSpace=wrap;strokeWidth=2;" vertex="1" parent="1">
          <mxGeometry x="457" y="8" width="111" height="54" as="geometry" />
        </mxCell>
        <mxCell id="3" value="Proceso 1.1" style="whiteSpace=wrap;strokeWidth=2;" vertex="1" parent="1">
          <mxGeometry x="79" y="134" width="142" height="54" as="geometry" />
        </mxCell>
        <mxCell id="4" value="BD_Solicitudes" style="whiteSpace=wrap;strokeWidth=2;" vertex="1" parent="1">
          <mxGeometry x="68" y="261" width="165" height="54" as="geometry" />
        </mxCell>
        <mxCell id="5" value="Proceso 1.2" style="whiteSpace=wrap;strokeWidth=2;" vertex="1" parent="1">
          <mxGeometry x="581" y="387" width="142" height="54" as="geometry" />
        </mxCell>
        <mxCell id="6" value="Proceso 1.4" style="whiteSpace=wrap;strokeWidth=2;" vertex="1" parent="1">
          <mxGeometry x="312" y="134" width="142" height="54" as="geometry" />
        </mxCell>
        <mxCell id="7" value="BD_Contratos" style="whiteSpace=wrap;strokeWidth=2;" vertex="1" parent="1">
          <mxGeometry x="305" y="261" width="157" height="54" as="geometry" />
        </mxCell>
        <mxCell id="8" value="Proceso 1.5" style="whiteSpace=wrap;strokeWidth=2;" vertex="1" parent="1">
          <mxGeometry x="289" y="387" width="142" height="54" as="geometry" />
        </mxCell>
        <mxCell id="9" value="BD_Cronogramas" style="whiteSpace=wrap;strokeWidth=2;" vertex="1" parent="1">
          <mxGeometry x="59" y="514" width="180" height="54" as="geometry" />
        </mxCell>
        <mxCell id="10" value="Proveedores" style="whiteSpace=wrap;strokeWidth=2;" vertex="1" parent="1">
          <mxGeometry x="579" y="514" width="147" height="54" as="geometry" />
        </mxCell>
        <mxCell id="11" value="Proceso 1.3" style="whiteSpace=wrap;strokeWidth=2;" vertex="1" parent="1">
          <mxGeometry x="753" y="640" width="142" height="54" as="geometry" />
        </mxCell>
        <mxCell id="12" value="BD_Pedidos" style="whiteSpace=wrap;strokeWidth=2;" vertex="1" parent="1">
          <mxGeometry x="753" y="766" width="142" height="54" as="geometry" />
        </mxCell>
        <mxCell id="13" value="Proceso 1.6" style="whiteSpace=wrap;strokeWidth=2;" vertex="1" parent="1">
          <mxGeometry x="289" y="514" width="142" height="54" as="geometry" />
        </mxCell>
        <mxCell id="14" value="Municipio" style="whiteSpace=wrap;strokeWidth=2;" vertex="1" parent="1">
          <mxGeometry x="176" y="640" width="128" height="54" as="geometry" />
        </mxCell>
        <mxCell id="15" value="Policía" style="whiteSpace=wrap;strokeWidth=2;" vertex="1" parent="1">
          <mxGeometry x="376" y="640" width="107" height="54" as="geometry" />
        </mxCell>
        <mxCell id="16" value="BD_Clientes" style="whiteSpace=wrap;strokeWidth=2;" vertex="1" parent="1">
          <mxGeometry x="8" y="8" width="145" height="54" as="geometry" />
        </mxCell>
        <mxCell id="17" value="BD_Proveedores" style="whiteSpace=wrap;strokeWidth=2;" vertex="1" parent="1">
          <mxGeometry x="776" y="514" width="174" height="54" as="geometry" />
        </mxCell>
        <mxCell id="18" value="BD_Eventos" style="whiteSpace=wrap;strokeWidth=2;" vertex="1" parent="1">
          <mxGeometry x="699" y="261" width="143" height="54" as="geometry" />
        </mxCell>
        <mxCell id="19" value="Arrendador" style="whiteSpace=wrap;strokeWidth=2;" vertex="1" parent="1">
          <mxGeometry x="952" y="8" width="140" height="54" as="geometry" />
        </mxCell>
        <mxCell id="20" value="BD_Financiero" style="whiteSpace=wrap;strokeWidth=2;" vertex="1" parent="1">
          <mxGeometry x="942" y="134" width="162" height="54" as="geometry" />
        </mxCell>
        <mxCell id="21" value="Solicita propuesta" style="curved=1;startArrow=none;endArrow=block;exitX=0;exitY=0.72;entryX=0.69;entryY=0.01;" edge="1" parent="1" source="2" target="3">
          <mxGeometry relative="1" as="geometry">
            <Array as="points">
              <mxPoint x="213" y="98" />
            </Array>
          </mxGeometry>
        </mxCell>
        <mxCell id="22" value="Guarda solicitud" style="curved=1;startArrow=none;endArrow=block;exitX=0.5;exitY=1.01;entryX=0.5;entryY=0;" edge="1" parent="1" source="3" target="4">
          <mxGeometry relative="1" as="geometry">
            <Array as="points" />
          </mxGeometry>
        </mxCell>
        <mxCell id="23" value="Genera propuesta" style="curved=1;startArrow=none;endArrow=block;exitX=0.5;exitY=1;entryX=0;entryY=0.34;" edge="1" parent="1" source="4" target="5">
          <mxGeometry relative="1" as="geometry">
            <Array as="points">
              <mxPoint x="150" y="351" />
            </Array>
          </mxGeometry>
        </mxCell>
        <mxCell id="24" value="Envía propuesta" style="curved=1;startArrow=none;endArrow=block;exitX=1;exitY=0.13;entryX=1.01;entryY=0.68;" edge="1" parent="1" source="5" target="2">
          <mxGeometry relative="1" as="geometry">
            <Array as="points">
              <mxPoint x="877" y="351" />
              <mxPoint x="877" y="98" />
            </Array>
          </mxGeometry>
        </mxCell>
        <mxCell id="25" value="Aprobación" style="curved=1;startArrow=none;endArrow=block;exitX=0;exitY=1;entryX=0.5;entryY=0.01;" edge="1" parent="1" source="2" target="6">
          <mxGeometry relative="1" as="geometry">
            <Array as="points">
              <mxPoint x="383" y="98" />
            </Array>
          </mxGeometry>
        </mxCell>
        <mxCell id="26" value="Actualiza contrato" style="curved=1;startArrow=none;endArrow=block;exitX=0.5;exitY=1.01;entryX=0.5;entryY=0;" edge="1" parent="1" source="6" target="7">
          <mxGeometry relative="1" as="geometry">
            <Array as="points" />
          </mxGeometry>
        </mxCell>
        <mxCell id="27" value="Crea cronograma" style="curved=1;startArrow=none;endArrow=block;exitX=0.5;exitY=1;entryX=0.57;entryY=0;" edge="1" parent="1" source="7" target="8">
          <mxGeometry relative="1" as="geometry">
            <Array as="points">
              <mxPoint x="383" y="351" />
            </Array>
          </mxGeometry>
        </mxCell>
        <mxCell id="28" value="Registra cronograma" style="curved=1;startArrow=none;endArrow=block;exitX=0;exitY=0.9;entryX=0.5;entryY=-0.01;" edge="1" parent="1" source="8" target="9">
          <mxGeometry relative="1" as="geometry">
            <Array as="points">
              <mxPoint x="149" y="477" />
            </Array>
          </mxGeometry>
        </mxCell>
        <mxCell id="29" value="" style="curved=1;startArrow=block;endArrow=block;exitX=0.5;exitY=1;entryX=0.5;entryY=-0.01;" edge="1" parent="1" source="5" target="10">
          <mxGeometry relative="1" as="geometry">
            <Array as="points" />
          </mxGeometry>
        </mxCell>
        <mxCell id="30" value="" style="curved=1;startArrow=block;endArrow=block;exitX=0.5;exitY=0.99;entryX=0;entryY=0.02;" edge="1" parent="1" source="10" target="11">
          <mxGeometry relative="1" as="geometry">
            <Array as="points">
              <mxPoint x="652" y="604" />
            </Array>
          </mxGeometry>
        </mxCell>
        <mxCell id="31" value="Realiza pedido" style="curved=1;startArrow=none;endArrow=block;exitX=0.5;exitY=1;entryX=0.5;entryY=0.01;" edge="1" parent="1" source="11" target="12">
          <mxGeometry relative="1" as="geometry">
            <Array as="points" />
          </mxGeometry>
        </mxCell>
        <mxCell id="32" value="Solicita permisos" style="curved=1;startArrow=none;endArrow=block;exitX=0.5;exitY=1;entryX=0.5;entryY=-0.01;" edge="1" parent="1" source="8" target="13">
          <mxGeometry relative="1" as="geometry">
            <Array as="points" />
          </mxGeometry>
        </mxCell>
        <mxCell id="33" value="Envía solicitud de permisos" style="curved=1;startArrow=none;endArrow=block;exitX=0.14;exitY=0.99;entryX=0.5;entryY=0;" edge="1" parent="1" source="13" target="14">
          <mxGeometry relative="1" as="geometry">
            <Array as="points">
              <mxPoint x="240" y="604" />
            </Array>
          </mxGeometry>
        </mxCell>
        <mxCell id="34" value="Coordina seguridad" style="curved=1;startArrow=none;endArrow=block;exitX=0.71;exitY=0.99;entryX=0.5;entryY=0;" edge="1" parent="1" source="13" target="15">
          <mxGeometry relative="1" as="geometry">
            <Array as="points">
              <mxPoint x="430" y="604" />
            </Array>
          </mxGeometry>
        </mxCell>
        <mxCell id="35" value="" style="curved=1;startArrow=block;endArrow=block;exitX=0.5;exitY=1;entryX=0.29;entryY=0.01;" edge="1" parent="1" source="16" target="3">
          <mxGeometry relative="1" as="geometry">
            <Array as="points">
              <mxPoint x="81" y="98" />
            </Array>
          </mxGeometry>
        </mxCell>
        <mxCell id="36" value="" style="curved=1;startArrow=block;endArrow=block;exitX=0.5;exitY=0.99;entryX=0.62;entryY=0;" edge="1" parent="1" source="17" target="11">
          <mxGeometry relative="1" as="geometry">
            <Array as="points">
              <mxPoint x="863" y="604" />
            </Array>
          </mxGeometry>
        </mxCell>
        <mxCell id="37" value="" style="curved=1;startArrow=block;endArrow=block;exitX=0.5;exitY=1;entryX=0.86;entryY=0;" edge="1" parent="1" source="18" target="5">
          <mxGeometry relative="1" as="geometry">
            <Array as="points">
              <mxPoint x="770" y="351" />
            </Array>
          </mxGeometry>
        </mxCell>
        <mxCell id="38" value="" style="curved=1;startArrow=block;endArrow=block;exitX=0.5;exitY=1;entryX=0.5;entryY=0.01;" edge="1" parent="1" source="19" target="20">
          <mxGeometry relative="1" as="geometry">
            <Array as="points" />
          </mxGeometry>
        </mxCell>
      </root>
    </mxGraphModel>
  </diagram>
</mxfile>
